<?xml version="1.0" encoding="utf-8"?>
<svg viewBox="0 0 100 49.058" xmlns="http://www.w3.org/2000/svg" xmlns:bx="https://boxy-svg.com">
  <defs>
    <linearGradient id="lava" bx:pinned="true">
      <title>Lava</title>
      <stop style="stop-color: rgb(195, 25, 36);"/>
    </linearGradient>
    <linearGradient id="white" bx:pinned="true">
      <title>White</title>
      <stop style="stop-color: rgb(255, 255, 255);"/>
    </linearGradient>
    <linearGradient id="black" bx:pinned="true">
      <title>Black</title>
      <stop style="stop-color: rgb(0, 0, 0)"/>
    </linearGradient>
  </defs>
  <g transform="matrix(1.02238, 0, 0, 1.010101, -18.046028, -42.318188)">
    <title>DE-PACK Logo</title>
    <rect x="17.651" y="41.895" fill="#c31924" width="97.811" height="48.567" style="fill: url(#lava);">
      <title>Red-Background</title>
    </rect>
    <g>
      <title>DE</title>
      <path d="M 23.358 46.836 L 37.832 46.836 C 41.134 46.836 43.562 47.128 45.311 47.613 C 47.642 48.293 49.584 49.458 51.237 51.207 C 52.887 52.956 54.15 55.092 55.025 57.52 C 55.899 60.045 56.287 63.154 56.287 66.748 C 56.287 69.953 55.899 72.771 55.122 75.102 C 54.15 77.918 52.693 80.25 50.945 81.998 C 49.585 83.357 47.74 84.426 45.409 85.105 C 43.66 85.689 41.329 85.98 38.415 85.98 L 23.359 85.98 L 23.359 46.836 Z M 31.226 53.539 L 31.226 79.571 L 37.151 79.571 C 39.385 79.571 40.939 79.473 41.911 79.182 C 43.174 78.891 44.242 78.307 45.116 77.53 C 45.991 76.753 46.67 75.491 47.156 73.743 C 47.739 71.995 47.933 69.565 47.933 66.555 C 47.933 63.544 47.641 61.213 47.156 59.561 C 46.573 57.91 45.893 56.647 44.922 55.773 C 43.951 54.898 42.688 54.219 41.231 53.927 C 40.164 53.635 37.929 53.539 34.723 53.539 L 31.226 53.539 L 31.226 53.539 Z" style="fill: url(#black);">
        <title>D</title>
      </path>
      <polygon points="61.337 86.078 61.337 46.836 90.378 46.817 90.378 53.441 69.204 53.441 69.204 62.086 88.921 62.086 88.921 68.789 69.204 68.789 69.204 79.473 91.155 79.473 91.155 86.078" style="fill: url(#black);">
        <title>E</title>
      </polygon>
    </g>
    <g transform="matrix(1, 0, 0, 1, 33.375935, 41.34568)">
      <title>PACK</title>
      <path fill="#FFFFFF" d="M35.828,38.127v-10.49h3.401c1.261,0,2.138,0.098,2.526,0.193 c0.582,0.195,1.068,0.486,1.552,1.07c0.389,0.484,0.584,1.164,0.584,2.039c0,0.68-0.098,1.166-0.389,1.65 c-0.195,0.486-0.485,0.777-0.874,1.068s-0.777,0.389-1.068,0.486c-0.486,0.098-1.264,0.195-2.235,0.195h-1.36v3.98h-2.137V38.127 z M37.965,29.385v3.012h1.167c0.872,0,1.358-0.098,1.649-0.195c0.293-0.096,0.488-0.291,0.682-0.484 c0.195-0.195,0.195-0.486,0.195-0.777c0-0.389-0.098-0.68-0.291-0.971c-0.195-0.293-0.486-0.391-0.877-0.486 c-0.291,0-0.777-0.098-1.554-0.098H37.965z" style="fill: url(#white);">
        <title>P</title>
      </path>
      <path fill="#FFFFFF" d="M 53.992 38.127 L 51.66 38.127 L 50.787 35.797 L 46.609 35.797 L 45.738 38.127 L 43.503 38.127 L 47.582 27.637 L 49.814 27.637 L 53.992 38.127 Z M 50.105 33.949 L 48.648 30.064 L 47.191 33.949 L 50.105 33.949 Z" style="fill: url(#white);">
        <title>A</title>
      </path>
      <path fill="#FFFFFF" d="M 61.957 34.242 L 63.996 34.922 C 63.705 36.088 63.123 36.961 62.443 37.447 C 61.666 38.029 60.791 38.32 59.625 38.32 C 58.266 38.32 57.1 37.836 56.129 36.865 C 55.254 35.892 54.77 34.631 54.77 32.978 C 54.77 31.23 55.254 29.871 56.129 28.9 C 57.002 27.927 58.266 27.443 59.723 27.443 C 60.987 27.443 62.053 27.83 62.83 28.607 C 63.316 29.093 63.705 29.675 63.9 30.55 L 61.859 31.034 C 61.761 30.452 61.47 30.063 61.082 29.772 C 60.694 29.481 60.209 29.286 59.625 29.286 C 58.848 29.286 58.168 29.577 57.684 30.161 C 57.198 30.743 56.907 31.618 56.907 32.882 C 56.907 34.241 57.1 35.114 57.587 35.698 C 58.073 36.28 58.655 36.571 59.433 36.571 C 60.015 36.571 60.501 36.378 60.89 35.989 C 61.471 35.602 61.762 35.02 61.957 34.242" style="fill: url(#white);">
        <title>C</title>
      </path>
      <polygon fill="#FFFFFF" points="65.842 38.127 65.842 27.637 67.979 27.637 67.979 32.299 72.252 27.637 75.07 27.637 71.184 31.717 75.361 38.127 72.545 38.127 69.727 33.174 67.979 34.922 67.979 38.127" style="fill: url(#white);">
        <title>K</title>
      </polygon>
    </g>
  </g>
</svg>