<?xml version="1.0" encoding="utf-8"?>
<svg viewBox="0 0 274 164" xmlns="http://www.w3.org/2000/svg">
  <path d="M 32.39 200 L 306.39 200 L 306.39 36 L 32.39 36 Z" style="fill: rgb(255, 255, 255); visibility: hidden;" transform="matrix(1, 0, 0, 1, -32.389938, -36)">
    <title>background</title>
  </path>
  <path d="M 33.258 69.611 C 29.13 103.306 39.716 138.505 65.205 164.754 C 106.609 207.392 172.759 211.462 218.879 176.323 C 175.547 200.359 119.855 193.525 83.681 156.272 C 64.022 136.026 53.522 110.28 52.084 84.153 C 58.535 90.964 67.053 94.344 76.999 97.659 C 97.904 104.626 121.611 106.994 135.173 137.758 C 131.123 102.099 104.521 86.934 72.076 76.825 C 45.793 68.635 34.857 59.849 34.857 59.849 C 34.857 59.849 33.823 63.74 33.258 69.611" style="fill: rgb(109, 194, 72); fill-opacity: 1;" transform="matrix(1, 0, 0, 1, -32.389938, -36)">
    <title>leaf</title>
  </path>
  <g transform="matrix(1, 0, 0, -1, 0.000454, 164)" style="">
    <title>eco</title>
    <path d="M 126.801 129.113 L 135.923 129.113 L 135.923 138.814 C 135.923 143.807 134.843 146.374 131.362 146.374 C 128.001 146.374 126.801 143.807 126.801 138.814 L 126.801 129.113 Z M 131.362 86.602 C 134.843 86.602 135.923 89.027 135.923 94.163 L 135.923 104.861 L 156.571 104.861 L 156.571 97.586 C 156.571 78.471 148.287 69.056 131.362 69.056 C 114.436 69.056 106.273 78.471 106.273 97.586 L 106.273 135.39 C 106.273 154.506 114.436 163.921 131.362 163.921 C 148.287 163.921 156.571 154.506 156.571 135.39 L 156.571 112.423 L 126.801 112.423 L 126.801 94.163 C 126.801 89.17 127.881 86.602 131.362 86.602" style="fill: rgb(109, 194, 72); fill-opacity: 1;"/>
    <path d="M 189.943 146.374 C 186.581 146.374 185.381 143.807 185.381 138.814 L 185.381 94.163 C 185.381 89.17 186.461 86.602 189.943 86.602 C 193.424 86.602 194.504 89.027 194.504 94.163 L 194.504 109.569 L 215.152 109.569 L 215.152 97.586 C 215.152 78.471 206.868 69.056 189.943 69.056 C 173.017 69.056 164.854 78.471 164.854 97.586 L 164.854 135.39 C 164.854 154.506 173.017 163.921 189.943 163.921 C 206.868 163.921 215.152 154.506 215.152 135.39 L 215.152 127.544 L 194.504 127.544 L 194.504 138.814 C 194.504 143.807 193.424 146.374 189.943 146.374" style="fill: rgb(109, 194, 72); fill-opacity: 1;"/>
    <path d="M 253.084 138.814 C 253.084 143.807 252.004 146.374 248.523 146.374 C 245.161 146.374 243.961 143.807 243.961 138.814 L 243.961 94.163 C 243.961 89.17 245.041 86.602 248.523 86.602 C 252.004 86.602 253.084 89.027 253.084 94.163 L 253.084 138.814 Z M 248.523 163.921 C 265.449 163.921 273.732 154.506 273.732 135.39 L 273.732 97.586 C 273.732 78.471 265.449 69.056 248.523 69.056 C 231.597 69.056 223.434 78.471 223.434 97.586 L 223.434 135.39 C 223.434 154.506 231.597 163.921 248.523 163.921" style="fill: rgb(109, 194, 72); fill-opacity: 1;"/>
  </g>
  <g transform="matrix(1, 0, 0, -1, 0.000454, 164)" style="">
    <title>product</title>
    <path d="M 109.493 51.745 C 109.493 48.858 110.445 46.388 112.35 44.337 C 114.256 42.286 116.499 41.261 119.079 41.261 C 121.737 41.261 124.018 42.232 125.924 44.176 C 127.828 46.119 128.781 48.504 128.781 51.331 C 128.781 54.295 127.824 56.78 125.912 58.785 C 123.999 60.79 121.683 61.793 118.964 61.793 C 116.46 61.793 114.256 60.786 112.35 58.774 C 110.445 56.761 109.493 54.419 109.493 51.745 Z M 106.29 64.258 L 109.493 64.258 L 109.493 60.111 C 110.415 61.539 111.732 62.68 113.445 63.532 C 115.158 64.385 116.982 64.812 118.918 64.812 C 122.743 64.812 125.912 63.54 128.424 60.997 C 130.935 58.455 132.191 55.279 132.191 51.469 C 132.191 47.751 130.951 44.617 128.47 42.068 C 125.988 39.517 122.889 38.241 119.172 38.241 C 117.113 38.241 115.258 38.642 113.606 39.44 C 111.955 40.238 110.584 41.399 109.493 42.92 L 109.493 30.706 L 106.29 30.706 L 106.29 64.258" style="fill: rgb(67, 69, 75); fill-opacity: 1;"/>
    <path d="M 139.783 38.91 L 136.487 38.91 L 136.487 64.258 L 139.552 64.258 L 139.552 61.332 C 140.35 62.453 141.222 63.275 142.167 63.797 C 143.112 64.32 144.214 64.596 145.474 64.627 L 145.497 61.102 C 143.453 60.917 141.991 60.307 141.107 59.27 C 140.224 58.233 139.783 56.546 139.783 54.211 L 139.783 38.91" style="fill: rgb(67, 69, 75); fill-opacity: 1;"/>
    <path d="M 150.784 51.608 C 150.784 48.689 151.714 46.241 153.573 44.268 C 155.431 42.293 157.743 41.307 160.509 41.307 C 163.228 41.307 165.509 42.293 167.353 44.268 C 169.197 46.241 170.118 48.703 170.118 51.654 C 170.118 54.649 169.185 57.111 167.319 59.039 C 165.451 60.967 163.082 61.931 160.209 61.931 C 157.628 61.931 155.412 60.94 153.561 58.958 C 151.71 56.977 150.784 54.526 150.784 51.608 Z M 147.374 51.561 C 147.374 55.279 148.649 58.459 151.2 61.102 C 153.749 63.743 156.768 65.065 160.255 65.065 C 163.927 65.065 167.057 63.767 169.646 61.17 C 172.235 58.574 173.529 55.479 173.529 51.884 C 173.529 48.105 172.261 44.878 169.727 42.205 C 167.192 39.532 164.119 38.195 160.509 38.195 C 156.837 38.195 153.73 39.505 151.188 42.125 C 148.645 44.743 147.374 47.889 147.374 51.561" style="fill: rgb(67, 69, 75); fill-opacity: 1;"/>
    <path d="M 199.186 51.331 C 199.186 54.219 198.23 56.685 196.317 58.728 C 194.405 60.771 192.158 61.793 189.576 61.793 C 186.904 61.793 184.615 60.82 182.709 58.878 C 180.804 56.934 179.852 54.557 179.852 51.745 C 179.852 48.78 180.808 46.292 182.721 44.279 C 184.634 42.267 186.95 41.261 189.668 41.261 C 192.172 41.261 194.385 42.267 196.305 44.279 C 198.226 46.292 199.186 48.642 199.186 51.331 Z M 199.094 60.249 L 199.094 72.462 L 202.366 72.462 L 202.366 38.91 L 199.094 38.91 L 199.094 42.736 C 197.956 41.321 196.543 40.22 194.854 39.429 C 193.163 38.638 191.374 38.241 189.485 38.241 C 185.828 38.241 182.747 39.532 180.243 42.113 C 177.74 44.695 176.488 47.859 176.488 51.608 C 176.488 55.325 177.724 58.455 180.198 60.997 C 182.671 63.54 185.766 64.812 189.485 64.812 C 191.482 64.812 193.298 64.423 194.934 63.648 C 196.571 62.872 197.956 61.738 199.094 60.249" style="fill: rgb(67, 69, 75); fill-opacity: 1;"/>
    <path d="M 207.837 64.258 L 211.04 64.258 L 211.04 50.801 C 211.04 47.344 211.601 44.898 212.723 43.461 C 213.844 42.025 215.688 41.307 218.253 41.307 C 219.712 41.307 220.995 41.603 222.102 42.194 C 223.207 42.785 224.098 43.642 224.775 44.763 C 225.158 45.424 225.435 46.203 225.604 47.102 C 225.773 48.001 225.858 49.564 225.858 51.791 L 225.858 64.258 L 229.107 64.258 L 229.107 38.91 L 225.858 38.91 L 225.858 41.653 C 224.874 40.454 223.776 39.586 222.563 39.048 C 221.349 38.511 219.881 38.241 218.161 38.241 C 214.504 38.241 211.87 39.229 210.257 41.203 C 208.644 43.177 207.837 46.453 207.837 51.031 L 207.837 64.258" style="fill: rgb(67, 69, 75); fill-opacity: 1;"/>
    <path d="M 254.973 56.47 C 253.974 58.313 252.756 59.676 251.321 60.56 C 249.884 61.444 248.175 61.885 246.193 61.885 C 243.581 61.885 241.366 60.894 239.545 58.912 C 237.724 56.931 236.814 54.48 236.814 51.561 C 236.814 48.642 237.728 46.203 239.556 44.244 C 241.384 42.286 243.643 41.307 246.331 41.307 C 248.297 41.307 250.033 41.79 251.539 42.758 C 253.044 43.727 254.189 45.086 254.973 46.837 L 258.568 46.837 C 257.584 44.087 256.04 41.959 253.936 40.454 C 251.83 38.948 249.35 38.195 246.492 38.195 C 242.821 38.195 239.721 39.497 237.195 42.102 C 234.667 44.705 233.404 47.843 233.404 51.515 C 233.404 55.263 234.683 58.44 237.241 61.044 C 239.798 63.648 242.912 64.949 246.584 64.949 C 249.334 64.949 251.758 64.208 253.855 62.726 C 255.952 61.243 257.523 59.157 258.568 56.47 L 254.973 56.47" style="fill: rgb(67, 69, 75); fill-opacity: 1;"/>
    <path d="M 265.928 38.91 L 265.928 60.987 L 261.112 60.987 L 261.112 64.258 L 265.928 64.258 L 265.928 72.462 L 269.177 72.462 L 269.177 64.258 L 273.993 64.258 L 273.993 60.987 L 269.177 60.987 L 269.177 38.91 L 265.928 38.91" style="fill: rgb(67, 69, 75); fill-opacity: 1;"/>
  </g>
  <g transform="matrix(1, 0, 0, -1, 0.000454, 164)" style="">
    <title>subline</title>
    <path d="M 113.272 26.597 L 112.122 26.597 L 112.122 32.016 L 111.357 32.016 L 111.357 33.02 L 112.088 33.02 L 112.088 33.213 C 112.088 33.87 112.27 34.366 112.637 34.699 C 113.002 35.031 113.549 35.198 114.277 35.198 L 114.277 34.13 L 114.178 34.13 C 113.835 34.13 113.59 34.052 113.442 33.896 C 113.294 33.74 113.221 33.48 113.221 33.113 L 113.221 33.02 L 114.277 33.02 L 114.277 32.016 L 113.272 32.016 L 113.272 26.597" style="fill: rgb(67, 69, 75); fill-opacity: 1;"/>
    <path d="M 115.828 29.815 C 115.828 29.172 116.031 28.637 116.438 28.208 C 116.845 27.78 117.351 27.567 117.959 27.567 C 118.554 27.567 119.054 27.781 119.457 28.211 C 119.86 28.642 120.061 29.18 120.061 29.826 C 120.061 30.476 119.86 31.013 119.457 31.438 C 119.054 31.862 118.551 32.074 117.947 32.074 C 117.347 32.074 116.845 31.859 116.438 31.429 C 116.031 30.999 115.828 30.46 115.828 29.815 Z M 114.631 29.803 C 114.631 30.258 114.708 30.684 114.861 31.078 C 115.015 31.474 115.242 31.829 115.542 32.145 C 115.865 32.49 116.228 32.757 116.634 32.945 C 117.038 33.131 117.459 33.225 117.894 33.225 C 118.362 33.225 118.795 33.141 119.194 32.974 C 119.593 32.806 119.954 32.559 120.277 32.232 C 120.593 31.908 120.835 31.545 121.005 31.14 C 121.174 30.735 121.259 30.317 121.259 29.884 C 121.259 29.445 121.179 29.016 121.021 28.6 C 120.864 28.183 120.643 27.82 120.359 27.508 C 120.032 27.15 119.665 26.878 119.259 26.694 C 118.851 26.508 118.419 26.416 117.959 26.416 C 117.488 26.416 117.054 26.5 116.657 26.67 C 116.26 26.839 115.903 27.089 115.589 27.42 C 115.289 27.736 115.054 28.103 114.885 28.521 C 114.716 28.94 114.631 29.366 114.631 29.803" style="fill: rgb(67, 69, 75); fill-opacity: 1;"/>
    <path d="M 123.3 26.597 L 122.143 26.597 L 122.143 33.02 L 123.229 33.02 L 123.229 32.279 C 123.42 32.563 123.638 32.774 123.886 32.912 C 124.134 33.05 124.421 33.121 124.747 33.125 L 124.747 31.916 C 124.229 31.877 123.859 31.725 123.635 31.458 C 123.411 31.192 123.3 30.762 123.3 30.17 L 123.3 26.597" style="fill: rgb(67, 69, 75); fill-opacity: 1;"/>
    <path d="M 129.641 29.85 C 129.641 29.199 129.856 28.654 130.286 28.214 C 130.717 27.775 131.242 27.555 131.866 27.555 C 132.434 27.555 132.935 27.776 133.368 28.217 C 133.803 28.659 134.02 29.176 134.02 29.768 C 134.02 30.399 133.805 30.939 133.374 31.388 C 132.945 31.838 132.434 32.063 131.842 32.063 C 131.235 32.063 130.717 31.849 130.286 31.42 C 129.856 30.992 129.641 30.468 129.641 29.85 Z M 133.961 26.597 L 133.961 27.385 C 133.665 27.077 133.336 26.845 132.972 26.688 C 132.608 26.529 132.219 26.451 131.807 26.451 C 130.842 26.451 130.04 26.773 129.401 27.417 C 128.763 28.062 128.444 28.868 128.444 29.838 C 128.444 30.289 128.523 30.717 128.683 31.122 C 128.843 31.528 129.071 31.883 129.367 32.191 C 129.689 32.529 130.043 32.779 130.427 32.942 C 130.809 33.103 131.246 33.184 131.737 33.184 C 132.177 33.184 132.581 33.106 132.951 32.95 C 133.322 32.794 133.658 32.559 133.961 32.243 L 133.961 33.02 L 135.129 33.02 L 135.129 26.597 L 133.961 26.597" style="fill: rgb(67, 69, 75); fill-opacity: 1;"/>
    <path d="M 137.509 26.597 L 136.353 26.597 L 136.353 33.02 L 137.462 33.02 L 137.462 32.29 C 137.703 32.578 137.969 32.789 138.259 32.924 C 138.549 33.058 138.881 33.125 139.254 33.125 C 140.095 33.125 140.741 32.878 141.191 32.384 C 141.64 31.889 141.865 31.181 141.865 30.258 L 141.865 26.597 L 140.702 26.597 L 140.702 30.007 C 140.702 30.689 140.576 31.194 140.324 31.523 C 140.071 31.852 139.679 32.016 139.15 32.016 C 138.574 32.016 138.156 31.822 137.897 31.435 C 137.638 31.047 137.509 30.408 137.509 29.517 L 137.509 26.597" style="fill: rgb(67, 69, 75); fill-opacity: 1;"/>
    <path d="M 151.401 30.422 C 151.257 30.951 151.007 31.361 150.654 31.651 C 150.299 31.941 149.874 32.086 149.38 32.086 C 148.874 32.086 148.435 31.937 148.064 31.639 C 147.692 31.341 147.436 30.936 147.295 30.422 L 151.401 30.422 Z M 147.261 29.382 C 147.358 28.845 147.6 28.41 147.988 28.077 C 148.375 27.744 148.835 27.578 149.368 27.578 C 149.75 27.578 150.098 27.669 150.411 27.853 C 150.724 28.035 150.975 28.294 151.161 28.629 L 152.463 28.629 C 152.167 27.916 151.754 27.371 151.223 26.994 C 150.692 26.616 150.074 26.428 149.368 26.428 C 148.894 26.428 148.459 26.511 148.067 26.679 C 147.673 26.846 147.317 27.097 146.998 27.432 C 146.699 27.747 146.463 28.114 146.294 28.532 C 146.125 28.951 146.04 29.378 146.04 29.815 C 146.04 30.266 146.117 30.689 146.271 31.081 C 146.424 31.475 146.652 31.833 146.951 32.156 C 147.27 32.506 147.63 32.77 148.032 32.947 C 148.432 33.124 148.87 33.213 149.345 33.213 C 149.909 33.213 150.434 33.081 150.919 32.819 C 151.404 32.556 151.804 32.189 152.119 31.718 C 152.306 31.426 152.444 31.106 152.533 30.757 C 152.623 30.409 152.668 30.011 152.668 29.564 L 152.668 29.382 L 147.261 29.382" style="fill: rgb(67, 69, 75); fill-opacity: 1;"/>
    <path d="M 159.65 28.786 C 159.381 28.012 158.983 27.425 158.452 27.026 C 157.923 26.627 157.28 26.428 156.52 26.428 C 156.041 26.428 155.607 26.51 155.218 26.676 C 154.828 26.841 154.476 27.089 154.16 27.42 C 153.861 27.736 153.626 28.103 153.457 28.521 C 153.288 28.94 153.203 29.366 153.203 29.803 C 153.203 30.25 153.281 30.67 153.434 31.061 C 153.587 31.452 153.815 31.81 154.115 32.133 C 154.445 32.487 154.817 32.755 155.23 32.939 C 155.642 33.121 156.084 33.213 156.555 33.213 C 157.29 33.213 157.929 33.009 158.47 32.603 C 159.011 32.196 159.405 31.624 159.65 30.889 L 158.383 30.889 C 158.18 31.282 157.919 31.575 157.6 31.771 C 157.281 31.965 156.9 32.063 156.455 32.063 C 155.883 32.063 155.398 31.847 154.999 31.414 C 154.6 30.983 154.401 30.448 154.401 29.815 C 154.401 29.172 154.603 28.637 155.008 28.208 C 155.412 27.78 155.916 27.567 156.52 27.567 C 156.925 27.567 157.29 27.672 157.617 27.884 C 157.945 28.097 158.2 28.398 158.383 28.786 L 159.65 28.786" style="fill: rgb(67, 69, 75); fill-opacity: 1;"/>
    <path d="M 161.504 29.815 C 161.504 29.172 161.707 28.637 162.115 28.208 C 162.521 27.78 163.028 27.567 163.635 27.567 C 164.231 27.567 164.73 27.781 165.133 28.211 C 165.536 28.642 165.738 29.18 165.738 29.826 C 165.738 30.476 165.536 31.013 165.133 31.438 C 164.73 31.862 164.227 32.074 163.623 32.074 C 163.024 32.074 162.521 31.859 162.115 31.429 C 161.707 30.999 161.504 30.46 161.504 29.815 Z M 160.307 29.803 C 160.307 30.258 160.384 30.684 160.537 31.078 C 160.692 31.474 160.918 31.829 161.218 32.145 C 161.541 32.49 161.905 32.757 162.31 32.945 C 162.714 33.131 163.135 33.225 163.571 33.225 C 164.038 33.225 164.471 33.141 164.87 32.974 C 165.269 32.806 165.63 32.559 165.953 32.232 C 166.269 31.908 166.511 31.545 166.681 31.14 C 166.85 30.735 166.935 30.317 166.935 29.884 C 166.935 29.445 166.856 29.016 166.698 28.6 C 166.54 28.183 166.32 27.82 166.035 27.508 C 165.708 27.15 165.341 26.878 164.935 26.694 C 164.528 26.508 164.095 26.416 163.635 26.416 C 163.164 26.416 162.73 26.5 162.333 26.67 C 161.936 26.839 161.579 27.089 161.265 27.42 C 160.965 27.736 160.73 28.103 160.561 28.521 C 160.392 28.94 160.307 29.366 160.307 29.803" style="fill: rgb(67, 69, 75); fill-opacity: 1;"/>
    <path d="M 167.808 35.099 L 168.952 35.099 L 168.952 26.597 L 167.808 26.597 Z" style="fill: rgb(67, 69, 75); fill-opacity: 1;"/>
    <path d="M 171.033 29.815 C 171.033 29.172 171.237 28.637 171.644 28.208 C 172.05 27.78 172.557 27.567 173.164 27.567 C 173.76 27.567 174.259 27.781 174.662 28.211 C 175.066 28.642 175.267 29.18 175.267 29.826 C 175.267 30.476 175.066 31.013 174.662 31.438 C 174.259 31.862 173.756 32.074 173.153 32.074 C 172.553 32.074 172.05 31.859 171.644 31.429 C 171.237 30.999 171.033 30.46 171.033 29.815 Z M 169.836 29.803 C 169.836 30.258 169.913 30.684 170.067 31.078 C 170.221 31.474 170.448 31.829 170.747 32.145 C 171.071 32.49 171.434 32.757 171.839 32.945 C 172.243 33.131 172.664 33.225 173.1 33.225 C 173.568 33.225 174 33.141 174.4 32.974 C 174.798 32.806 175.159 32.559 175.483 32.232 C 175.798 31.908 176.04 31.545 176.21 31.14 C 176.379 30.735 176.464 30.317 176.464 29.884 C 176.464 29.445 176.385 29.016 176.227 28.6 C 176.07 28.183 175.849 27.82 175.565 27.508 C 175.238 27.15 174.87 26.878 174.464 26.694 C 174.057 26.508 173.624 26.416 173.164 26.416 C 172.694 26.416 172.259 26.5 171.863 26.67 C 171.465 26.839 171.109 27.089 170.794 27.42 C 170.494 27.736 170.259 28.103 170.09 28.521 C 169.921 28.94 169.836 29.366 169.836 29.803" style="fill: rgb(67, 69, 75); fill-opacity: 1;"/>
    <path d="M 178.208 29.85 C 178.208 29.199 178.423 28.654 178.853 28.214 C 179.283 27.775 179.81 27.555 180.433 27.555 C 181.001 27.555 181.502 27.776 181.936 28.217 C 182.37 28.659 182.587 29.176 182.587 29.768 C 182.587 30.399 182.372 30.939 181.942 31.388 C 181.512 31.838 181.001 32.063 180.409 32.063 C 179.802 32.063 179.283 31.849 178.853 31.42 C 178.423 30.992 178.208 30.468 178.208 29.85 Z M 177.431 26.083 L 178.663 26.083 C 178.842 25.783 179.076 25.555 179.367 25.397 C 179.657 25.239 179.989 25.16 180.363 25.16 C 181.013 25.16 181.536 25.356 181.933 25.747 C 182.33 26.139 182.529 26.657 182.529 27.304 L 182.529 27.385 C 182.233 27.077 181.904 26.845 181.539 26.688 C 181.175 26.529 180.786 26.451 180.374 26.451 C 179.408 26.451 178.607 26.773 177.968 27.417 C 177.33 28.062 177.011 28.868 177.011 29.838 C 177.011 30.289 177.09 30.717 177.25 31.122 C 177.409 31.528 177.638 31.883 177.934 32.191 C 178.256 32.529 178.61 32.779 178.993 32.942 C 179.376 33.103 179.814 33.184 180.304 33.184 C 180.741 33.184 181.144 33.106 181.516 32.95 C 181.888 32.794 182.229 32.559 182.54 32.243 L 182.54 33.02 L 183.697 33.02 L 183.697 27.659 C 183.697 26.542 183.407 25.667 182.826 25.034 C 182.246 24.403 181.449 24.086 180.433 24.086 C 179.697 24.086 179.069 24.26 178.546 24.609 C 178.025 24.957 177.653 25.448 177.431 26.083" style="fill: rgb(67, 69, 75); fill-opacity: 1;"/>
    <path d="M 184.92 33.02 L 186.065 33.02 L 186.065 26.597 L 184.92 26.597 Z M 184.92 35.099 L 186.065 35.099 L 186.065 33.774 L 184.92 33.774 Z" style="fill: rgb(67, 69, 75); fill-opacity: 1;"/>
    <path d="M 193.419 28.786 C 193.151 28.012 192.752 27.425 192.222 27.026 C 191.693 26.627 191.049 26.428 190.289 26.428 C 189.811 26.428 189.376 26.51 188.988 26.676 C 188.598 26.841 188.245 27.089 187.93 27.42 C 187.63 27.736 187.396 28.103 187.227 28.521 C 187.058 28.94 186.973 29.366 186.973 29.803 C 186.973 30.25 187.05 30.67 187.203 31.061 C 187.357 31.452 187.584 31.81 187.884 32.133 C 188.214 32.487 188.586 32.755 188.999 32.939 C 189.411 33.121 189.854 33.213 190.325 33.213 C 191.06 33.213 191.699 33.009 192.24 32.603 C 192.781 32.196 193.174 31.624 193.419 30.889 L 192.153 30.889 C 191.95 31.282 191.689 31.575 191.369 31.771 C 191.05 31.965 190.669 32.063 190.225 32.063 C 189.653 32.063 189.167 31.847 188.769 31.414 C 188.369 30.983 188.17 30.448 188.17 29.815 C 188.17 29.172 188.372 28.637 188.778 28.208 C 189.182 27.78 189.686 27.567 190.289 27.567 C 190.695 27.567 191.06 27.672 191.387 27.884 C 191.714 28.097 191.969 28.398 192.153 28.786 L 193.419 28.786" style="fill: rgb(67, 69, 75); fill-opacity: 1;"/>
    <path d="M 195.321 29.85 C 195.321 29.199 195.535 28.654 195.965 28.214 C 196.396 27.775 196.922 27.555 197.545 27.555 C 198.114 27.555 198.615 27.776 199.048 28.217 C 199.483 28.659 199.7 29.176 199.7 29.768 C 199.7 30.399 199.485 30.939 199.054 31.388 C 198.624 31.838 198.114 32.063 197.522 32.063 C 196.914 32.063 196.396 31.849 195.965 31.42 C 195.535 30.992 195.321 30.468 195.321 29.85 Z M 199.641 26.597 L 199.641 27.385 C 199.345 27.077 199.016 26.845 198.652 26.688 C 198.287 26.529 197.899 26.451 197.487 26.451 C 196.521 26.451 195.719 26.773 195.08 27.417 C 194.443 28.062 194.123 28.868 194.123 29.838 C 194.123 30.289 194.202 30.717 194.363 31.122 C 194.522 31.528 194.75 31.883 195.046 32.191 C 195.368 32.529 195.722 32.779 196.106 32.942 C 196.489 33.103 196.926 33.184 197.416 33.184 C 197.857 33.184 198.261 33.106 198.631 32.95 C 199.001 32.794 199.337 32.559 199.641 32.243 L 199.641 33.02 L 200.809 33.02 L 200.809 26.597 L 199.641 26.597" style="fill: rgb(67, 69, 75); fill-opacity: 1;"/>
    <path d="M 202.033 35.099 L 203.177 35.099 L 203.177 26.597 L 202.033 26.597 Z" style="fill: rgb(67, 69, 75); fill-opacity: 1;"/>
    <path d="M 212.737 30.422 C 212.593 30.951 212.343 31.361 211.99 31.651 C 211.635 31.941 211.21 32.086 210.716 32.086 C 210.21 32.086 209.771 31.937 209.4 31.639 C 209.028 31.341 208.772 30.936 208.631 30.422 L 212.737 30.422 Z M 208.597 29.382 C 208.694 28.845 208.936 28.41 209.324 28.077 C 209.711 27.744 210.171 27.578 210.704 27.578 C 211.086 27.578 211.434 27.669 211.747 27.853 C 212.06 28.035 212.311 28.294 212.497 28.629 L 213.799 28.629 C 213.503 27.916 213.09 27.371 212.559 26.994 C 212.028 26.616 211.409 26.428 210.704 26.428 C 210.23 26.428 209.795 26.511 209.403 26.679 C 209.009 26.846 208.653 27.097 208.334 27.432 C 208.034 27.747 207.799 28.114 207.63 28.532 C 207.461 28.951 207.376 29.378 207.376 29.815 C 207.376 30.266 207.453 30.689 207.607 31.081 C 207.76 31.475 207.988 31.833 208.287 32.156 C 208.606 32.506 208.966 32.77 209.367 32.947 C 209.768 33.124 210.206 33.213 210.681 33.213 C 211.245 33.213 211.77 33.081 212.255 32.819 C 212.74 32.556 213.14 32.189 213.455 31.718 C 213.642 31.426 213.78 31.106 213.869 30.757 C 213.959 30.409 214.004 30.011 214.004 29.564 L 214.004 29.382 L 208.597 29.382" style="fill: rgb(67, 69, 75); fill-opacity: 1;"/>
    <path d="M 216.045 26.597 L 214.889 26.597 L 214.889 33.02 L 215.998 33.02 L 215.998 32.29 C 216.24 32.578 216.505 32.789 216.795 32.924 C 217.085 33.058 217.417 33.125 217.79 33.125 C 218.631 33.125 219.277 32.878 219.727 32.384 C 220.176 31.889 220.401 31.181 220.401 30.258 L 220.401 26.597 L 219.239 26.597 L 219.239 30.007 C 219.239 30.689 219.113 31.194 218.86 31.523 C 218.607 31.852 218.215 32.016 217.686 32.016 C 217.11 32.016 216.692 31.822 216.433 31.435 C 216.174 31.047 216.045 30.408 216.045 29.517 L 216.045 26.597" style="fill: rgb(67, 69, 75); fill-opacity: 1;"/>
    <path d="M 224.286 26.597 L 223.416 26.597 L 220.976 33.02 L 222.22 33.02 L 223.908 28.331 L 225.642 33.02 L 226.862 33.02 L 224.286 26.597" style="fill: rgb(67, 69, 75); fill-opacity: 1;"/>
    <path d="M 227.438 33.02 L 228.582 33.02 L 228.582 26.597 L 227.438 26.597 Z M 227.438 35.099 L 228.582 35.099 L 228.582 33.774 L 227.438 33.774 Z" style="fill: rgb(67, 69, 75); fill-opacity: 1;"/>
    <path d="M 231.009 26.597 L 229.853 26.597 L 229.853 33.02 L 230.939 33.02 L 230.939 32.279 C 231.129 32.563 231.348 32.774 231.595 32.912 C 231.843 33.05 232.13 33.121 232.456 33.125 L 232.456 31.916 C 231.939 31.877 231.569 31.725 231.344 31.458 C 231.12 31.192 231.009 30.762 231.009 30.17 L 231.009 26.597" style="fill: rgb(67, 69, 75); fill-opacity: 1;"/>
    <path d="M 234.001 29.815 C 234.001 29.172 234.204 28.637 234.612 28.208 C 235.018 27.78 235.525 27.567 236.132 27.567 C 236.728 27.567 237.227 27.781 237.63 28.211 C 238.033 28.642 238.235 29.18 238.235 29.826 C 238.235 30.476 238.033 31.013 237.63 31.438 C 237.227 31.862 236.724 32.074 236.12 32.074 C 235.521 32.074 235.018 31.859 234.612 31.429 C 234.204 30.999 234.001 30.46 234.001 29.815 Z M 232.804 29.803 C 232.804 30.258 232.881 30.684 233.034 31.078 C 233.189 31.474 233.415 31.829 233.715 32.145 C 234.038 32.49 234.402 32.757 234.807 32.945 C 235.211 33.131 235.632 33.225 236.068 33.225 C 236.535 33.225 236.968 33.141 237.367 32.974 C 237.766 32.806 238.127 32.559 238.45 32.232 C 238.766 31.908 239.008 31.545 239.178 31.14 C 239.347 30.735 239.432 30.317 239.432 29.884 C 239.432 29.445 239.353 29.016 239.195 28.6 C 239.037 28.183 238.817 27.82 238.533 27.508 C 238.205 27.15 237.838 26.878 237.432 26.694 C 237.025 26.508 236.592 26.416 236.132 26.416 C 235.661 26.416 235.227 26.5 234.83 26.67 C 234.433 26.839 234.076 27.089 233.762 27.42 C 233.462 27.736 233.227 28.103 233.058 28.521 C 232.889 28.94 232.804 29.366 232.804 29.803" style="fill: rgb(67, 69, 75); fill-opacity: 1;"/>
    <path d="M 241.461 26.597 L 240.305 26.597 L 240.305 33.02 L 241.414 33.02 L 241.414 32.29 C 241.656 32.578 241.921 32.789 242.211 32.924 C 242.501 33.058 242.833 33.125 243.206 33.125 C 244.047 33.125 244.693 32.878 245.143 32.384 C 245.592 31.889 245.817 31.181 245.817 30.258 L 245.817 26.597 L 244.655 26.597 L 244.655 30.007 C 244.655 30.689 244.529 31.194 244.276 31.523 C 244.023 31.852 243.631 32.016 243.102 32.016 C 242.526 32.016 242.108 31.822 241.849 31.435 C 241.59 31.047 241.461 30.408 241.461 29.517 L 241.461 26.597" style="fill: rgb(67, 69, 75); fill-opacity: 1;"/>
    <path d="M 251 29.838 C 251 30.62 250.89 31.189 250.668 31.543 C 250.448 31.897 250.097 32.074 249.616 32.074 C 249.119 32.074 248.753 31.896 248.517 31.54 C 248.281 31.184 248.162 30.632 248.162 29.884 L 248.162 26.597 L 247.065 26.597 L 247.065 33.02 L 248.092 33.02 L 248.092 32.267 C 248.305 32.555 248.547 32.77 248.817 32.912 C 249.086 33.054 249.394 33.125 249.74 33.125 C 250.204 33.125 250.593 33.035 250.904 32.857 C 251.213 32.678 251.468 32.398 251.665 32.016 C 251.865 32.39 252.128 32.668 252.456 32.851 C 252.784 33.033 253.184 33.125 253.657 33.125 C 254.382 33.125 254.964 32.889 255.402 32.416 C 255.838 31.943 256.057 31.311 256.057 30.521 L 256.057 26.597 L 254.895 26.597 L 254.895 30.34 C 254.895 30.889 254.775 31.315 254.534 31.618 C 254.294 31.922 253.958 32.074 253.529 32.074 C 253.029 32.074 252.668 31.912 252.45 31.589 C 252.231 31.267 252.121 30.722 252.121 29.954 L 252.121 26.597 L 251 26.597 L 251 29.838" style="fill: rgb(67, 69, 75); fill-opacity: 1;"/>
    <path d="M 262.314 30.422 C 262.17 30.951 261.92 31.361 261.567 31.651 C 261.212 31.941 260.787 32.086 260.293 32.086 C 259.787 32.086 259.348 31.937 258.977 31.639 C 258.605 31.341 258.349 30.936 258.208 30.422 L 262.314 30.422 Z M 258.174 29.382 C 258.271 28.845 258.513 28.41 258.901 28.077 C 259.288 27.744 259.748 27.578 260.282 27.578 C 260.663 27.578 261.011 27.669 261.324 27.853 C 261.637 28.035 261.888 28.294 262.074 28.629 L 263.376 28.629 C 263.08 27.916 262.667 27.371 262.136 26.994 C 261.605 26.616 260.987 26.428 260.282 26.428 C 259.807 26.428 259.372 26.511 258.98 26.679 C 258.586 26.846 258.23 27.097 257.911 27.432 C 257.612 27.747 257.376 28.114 257.207 28.532 C 257.038 28.951 256.953 29.378 256.953 29.815 C 256.953 30.266 257.031 30.689 257.184 31.081 C 257.337 31.475 257.565 31.833 257.865 32.156 C 258.183 32.506 258.543 32.77 258.945 32.947 C 259.345 33.124 259.783 33.213 260.258 33.213 C 260.823 33.213 261.347 33.081 261.832 32.819 C 262.317 32.556 262.717 32.189 263.033 31.718 C 263.219 31.426 263.357 31.106 263.447 30.757 C 263.536 30.409 263.581 30.011 263.581 29.564 L 263.581 29.382 L 258.174 29.382" style="fill: rgb(67, 69, 75); fill-opacity: 1;"/>
    <path d="M 265.622 26.597 L 264.466 26.597 L 264.466 33.02 L 265.575 33.02 L 265.575 32.29 C 265.817 32.578 266.082 32.789 266.372 32.924 C 266.662 33.058 266.994 33.125 267.367 33.125 C 268.208 33.125 268.854 32.878 269.304 32.384 C 269.753 31.889 269.978 31.181 269.978 30.258 L 269.978 26.597 L 268.816 26.597 L 268.816 30.007 C 268.816 30.689 268.69 31.194 268.437 31.523 C 268.184 31.852 267.792 32.016 267.263 32.016 C 266.687 32.016 266.269 31.822 266.01 31.435 C 265.751 31.047 265.622 30.408 265.622 29.517 L 265.622 26.597" style="fill: rgb(67, 69, 75); fill-opacity: 1;"/>
    <path d="M 271.604 26.597 L 271.604 31.969 L 270.693 31.969 L 270.693 33.02 L 271.604 33.02 L 271.604 35.099 L 272.754 35.099 L 272.754 33.02 L 273.665 33.02 L 273.665 31.969 L 272.754 31.969 L 272.754 26.597 L 271.604 26.597" style="fill: rgb(67, 69, 75); fill-opacity: 1;"/>
  </g>
</svg>